<mxfile host="app.diagrams.net" modified="2023-09-05T10:13:53.099Z" agent="Mozilla/5.0 (Windows NT 10.0; Win64; x64) AppleWebKit/537.36 (KHTML, like Gecko) Chrome/116.0.0.0 Safari/537.36" etag="IZwbWjdnSsTaiId9pb3-" version="21.7.2" type="device">
  <diagram name="Page-1" id="V-no2B27AdzD9TtR8Gwy">
    <mxGraphModel dx="1195" dy="658" grid="1" gridSize="10" guides="1" tooltips="1" connect="1" arrows="1" fold="1" page="1" pageScale="1" pageWidth="827" pageHeight="1169" math="0" shadow="0">
      <root>
        <mxCell id="0" />
        <mxCell id="1" parent="0" />
        <mxCell id="kkfDQyU8IbMwYjaVZHdR-10" value="" style="edgeStyle=orthogonalEdgeStyle;rounded=0;orthogonalLoop=1;jettySize=auto;html=1;" parent="1" source="kkfDQyU8IbMwYjaVZHdR-1" target="kkfDQyU8IbMwYjaVZHdR-9" edge="1">
          <mxGeometry relative="1" as="geometry" />
        </mxCell>
        <mxCell id="kkfDQyU8IbMwYjaVZHdR-1" value="INITIALISATION ET&lt;br&gt;&amp;nbsp;AUTO-CONFIG" style="ellipse;whiteSpace=wrap;html=1;aspect=fixed;" parent="1" vertex="1">
          <mxGeometry x="387" y="120" width="100" height="100" as="geometry" />
        </mxCell>
        <mxCell id="kkfDQyU8IbMwYjaVZHdR-2" value="" style="shape=flexArrow;endArrow=classic;html=1;rounded=0;" parent="1" edge="1">
          <mxGeometry width="50" height="50" relative="1" as="geometry">
            <mxPoint x="436.66" y="70" as="sourcePoint" />
            <mxPoint x="436.66" y="120" as="targetPoint" />
          </mxGeometry>
        </mxCell>
        <mxCell id="kkfDQyU8IbMwYjaVZHdR-3" value="Start" style="text;html=1;strokeColor=none;fillColor=none;align=center;verticalAlign=middle;whiteSpace=wrap;rounded=0;" parent="1" vertex="1">
          <mxGeometry x="407" y="40" width="60" height="30" as="geometry" />
        </mxCell>
        <mxCell id="kkfDQyU8IbMwYjaVZHdR-4" value="Pression sur bouton" style="text;html=1;strokeColor=none;fillColor=none;align=center;verticalAlign=middle;whiteSpace=wrap;rounded=0;" parent="1" vertex="1">
          <mxGeometry x="447" y="60" width="113" height="30" as="geometry" />
        </mxCell>
        <mxCell id="kkfDQyU8IbMwYjaVZHdR-5" value="&lt;h1&gt;&lt;font style=&quot;font-size: 19px;&quot;&gt;Initalisation&lt;/font&gt;&lt;/h1&gt;&lt;div&gt;Initialise la &quot;FIFO&quot;, les timers, le bus I2C, la centrale inertielle et le GNSS. Vas également lire le fichier CONFIG.txt, si il n&#39;existe pas, il est créé avec les paramètres par défaut. Met à jour les variables de période et de LED.&lt;/div&gt;" style="text;html=1;strokeColor=none;fillColor=none;spacing=5;spacingTop=-20;whiteSpace=wrap;overflow=hidden;rounded=0;verticalAlign=top;horizontal=1;" parent="1" vertex="1">
          <mxGeometry x="487" y="100" width="340" height="110" as="geometry" />
        </mxCell>
        <mxCell id="kkfDQyU8IbMwYjaVZHdR-15" style="edgeStyle=orthogonalEdgeStyle;rounded=0;orthogonalLoop=1;jettySize=auto;html=1;entryX=0.5;entryY=1;entryDx=0;entryDy=0;" parent="1" source="kkfDQyU8IbMwYjaVZHdR-9" target="kkfDQyU8IbMwYjaVZHdR-12" edge="1">
          <mxGeometry relative="1" as="geometry">
            <Array as="points">
              <mxPoint x="320" y="280" />
            </Array>
          </mxGeometry>
        </mxCell>
        <mxCell id="kkfDQyU8IbMwYjaVZHdR-9" value="LOGGING" style="ellipse;whiteSpace=wrap;html=1;aspect=fixed;" parent="1" vertex="1">
          <mxGeometry x="387" y="240" width="100" height="100" as="geometry" />
        </mxCell>
        <mxCell id="kkfDQyU8IbMwYjaVZHdR-11" value="&lt;h1&gt;&lt;span style=&quot;font-size: 19px;&quot;&gt;Logging&lt;/span&gt;&lt;/h1&gt;&lt;div&gt;Attends les flags de mesure GNSS/IMU activés par l&#39;interruption, gère les écritures sur la carte SD, gère la réception des commandes UART et gère les exceptions.&lt;/div&gt;" style="text;html=1;strokeColor=none;fillColor=none;spacing=5;spacingTop=-20;whiteSpace=wrap;overflow=hidden;rounded=0;verticalAlign=top;horizontal=1;" parent="1" vertex="1">
          <mxGeometry x="487" y="220" width="340" height="110" as="geometry" />
        </mxCell>
        <mxCell id="kkfDQyU8IbMwYjaVZHdR-12" value="POWER OFF" style="ellipse;whiteSpace=wrap;html=1;aspect=fixed;" parent="1" vertex="1">
          <mxGeometry x="270" y="160" width="100" height="100" as="geometry" />
        </mxCell>
        <mxCell id="kkfDQyU8IbMwYjaVZHdR-14" value="&lt;h1&gt;&lt;font style=&quot;font-size: 19px;&quot;&gt;Power OFF&lt;/font&gt;&lt;/h1&gt;&lt;div&gt;Sauvegarde les mesures et éjecte la carte SD.&lt;/div&gt;" style="text;html=1;strokeColor=none;fillColor=none;spacing=5;spacingTop=-20;whiteSpace=wrap;overflow=hidden;rounded=0;verticalAlign=top;horizontal=1;align=right;" parent="1" vertex="1">
          <mxGeometry y="150" width="260" height="110" as="geometry" />
        </mxCell>
        <mxCell id="kkfDQyU8IbMwYjaVZHdR-16" value="Pression sur bouton &amp;gt;&amp;nbsp; 2sec" style="text;html=1;strokeColor=none;fillColor=none;align=center;verticalAlign=middle;whiteSpace=wrap;rounded=0;" parent="1" vertex="1">
          <mxGeometry x="200" y="274" width="170" height="30" as="geometry" />
        </mxCell>
        <mxCell id="kkfDQyU8IbMwYjaVZHdR-17" value="Commande &quot;SHUTDOWN&quot; recue" style="text;html=1;strokeColor=none;fillColor=none;align=center;verticalAlign=middle;whiteSpace=wrap;rounded=0;" parent="1" vertex="1">
          <mxGeometry x="183" y="289" width="187" height="30" as="geometry" />
        </mxCell>
        <mxCell id="kkfDQyU8IbMwYjaVZHdR-19" value="" style="endArrow=classic;html=1;rounded=0;entryX=0;entryY=0.5;entryDx=0;entryDy=0;" parent="1" target="kkfDQyU8IbMwYjaVZHdR-3" edge="1">
          <mxGeometry width="50" height="50" relative="1" as="geometry">
            <mxPoint x="320" y="160" as="sourcePoint" />
            <mxPoint x="400" y="50" as="targetPoint" />
          </mxGeometry>
        </mxCell>
        <mxCell id="kkfDQyU8IbMwYjaVZHdR-20" value="GLIVE / ILIVE" style="ellipse;whiteSpace=wrap;html=1;aspect=fixed;" parent="1" vertex="1">
          <mxGeometry x="252" y="440" width="100" height="100" as="geometry" />
        </mxCell>
        <mxCell id="kkfDQyU8IbMwYjaVZHdR-21" value="CONFIG" style="ellipse;whiteSpace=wrap;html=1;aspect=fixed;" parent="1" vertex="1">
          <mxGeometry x="387" y="440" width="100" height="100" as="geometry" />
        </mxCell>
        <mxCell id="kkfDQyU8IbMwYjaVZHdR-22" value="GLOG / ILOG" style="ellipse;whiteSpace=wrap;html=1;aspect=fixed;" parent="1" vertex="1">
          <mxGeometry x="530" y="440" width="100" height="100" as="geometry" />
        </mxCell>
        <mxCell id="kkfDQyU8IbMwYjaVZHdR-24" value="" style="endArrow=classic;html=1;rounded=0;entryX=0.655;entryY=0.002;entryDx=0;entryDy=0;exitX=0;exitY=1;exitDx=0;exitDy=0;entryPerimeter=0;" parent="1" source="kkfDQyU8IbMwYjaVZHdR-9" target="kkfDQyU8IbMwYjaVZHdR-20" edge="1">
          <mxGeometry width="50" height="50" relative="1" as="geometry">
            <mxPoint x="210" y="400" as="sourcePoint" />
            <mxPoint x="260" y="350" as="targetPoint" />
          </mxGeometry>
        </mxCell>
        <mxCell id="kkfDQyU8IbMwYjaVZHdR-26" value="" style="endArrow=classic;html=1;rounded=0;entryX=0.5;entryY=0;entryDx=0;entryDy=0;exitX=0.5;exitY=1;exitDx=0;exitDy=0;" parent="1" source="kkfDQyU8IbMwYjaVZHdR-9" target="kkfDQyU8IbMwYjaVZHdR-21" edge="1">
          <mxGeometry width="50" height="50" relative="1" as="geometry">
            <mxPoint x="510" y="410" as="sourcePoint" />
            <mxPoint x="560" y="360" as="targetPoint" />
          </mxGeometry>
        </mxCell>
        <mxCell id="kkfDQyU8IbMwYjaVZHdR-27" value="" style="endArrow=classic;html=1;rounded=0;entryX=0.337;entryY=0.03;entryDx=0;entryDy=0;exitX=1;exitY=1;exitDx=0;exitDy=0;entryPerimeter=0;" parent="1" source="kkfDQyU8IbMwYjaVZHdR-9" target="kkfDQyU8IbMwYjaVZHdR-22" edge="1">
          <mxGeometry width="50" height="50" relative="1" as="geometry">
            <mxPoint x="620" y="420" as="sourcePoint" />
            <mxPoint x="670" y="370" as="targetPoint" />
          </mxGeometry>
        </mxCell>
        <mxCell id="kkfDQyU8IbMwYjaVZHdR-32" value="" style="endArrow=classic;html=1;rounded=0;exitX=1;exitY=0;exitDx=0;exitDy=0;entryX=0.343;entryY=0.969;entryDx=0;entryDy=0;entryPerimeter=0;" parent="1" source="kkfDQyU8IbMwYjaVZHdR-20" target="kkfDQyU8IbMwYjaVZHdR-9" edge="1">
          <mxGeometry width="50" height="50" relative="1" as="geometry">
            <mxPoint x="170" y="450" as="sourcePoint" />
            <mxPoint x="220" y="400" as="targetPoint" />
          </mxGeometry>
        </mxCell>
        <mxCell id="kkfDQyU8IbMwYjaVZHdR-33" value="" style="endArrow=classic;html=1;rounded=0;entryX=0.738;entryY=0.978;entryDx=0;entryDy=0;entryPerimeter=0;exitX=0;exitY=0;exitDx=0;exitDy=0;" parent="1" source="kkfDQyU8IbMwYjaVZHdR-22" target="kkfDQyU8IbMwYjaVZHdR-9" edge="1">
          <mxGeometry width="50" height="50" relative="1" as="geometry">
            <mxPoint x="500" y="580" as="sourcePoint" />
            <mxPoint x="550" y="530" as="targetPoint" />
          </mxGeometry>
        </mxCell>
        <mxCell id="kkfDQyU8IbMwYjaVZHdR-34" value="" style="endArrow=classic;html=1;rounded=0;entryX=0.61;entryY=1.011;entryDx=0;entryDy=0;entryPerimeter=0;exitX=0.614;exitY=-0.003;exitDx=0;exitDy=0;exitPerimeter=0;" parent="1" source="kkfDQyU8IbMwYjaVZHdR-21" target="kkfDQyU8IbMwYjaVZHdR-9" edge="1">
          <mxGeometry width="50" height="50" relative="1" as="geometry">
            <mxPoint x="340" y="620" as="sourcePoint" />
            <mxPoint x="390" y="570" as="targetPoint" />
          </mxGeometry>
        </mxCell>
        <mxCell id="kkfDQyU8IbMwYjaVZHdR-35" value="CMD: EXIT" style="text;html=1;strokeColor=none;fillColor=none;align=center;verticalAlign=middle;whiteSpace=wrap;rounded=0;rotation=-54;fontSize=11;" parent="1" vertex="1">
          <mxGeometry x="320" y="420" width="80" height="30" as="geometry" />
        </mxCell>
        <mxCell id="kkfDQyU8IbMwYjaVZHdR-36" value="CMD: EXIT" style="text;html=1;strokeColor=none;fillColor=none;align=center;verticalAlign=middle;whiteSpace=wrap;rounded=0;rotation=-90;fontSize=11;" parent="1" vertex="1">
          <mxGeometry x="420" y="390" width="80" height="30" as="geometry" />
        </mxCell>
        <mxCell id="kkfDQyU8IbMwYjaVZHdR-37" value="CMD: EXIT" style="text;html=1;strokeColor=none;fillColor=none;align=center;verticalAlign=middle;whiteSpace=wrap;rounded=0;rotation=54;fontSize=11;direction=west;flipV=0;flipH=0;" parent="1" vertex="1">
          <mxGeometry x="480" y="420" width="80" height="30" as="geometry" />
        </mxCell>
        <mxCell id="kkfDQyU8IbMwYjaVZHdR-38" value="CMD: CONFIG" style="text;html=1;strokeColor=none;fillColor=none;align=center;verticalAlign=middle;whiteSpace=wrap;rounded=0;rotation=90;fontSize=11;" parent="1" vertex="1">
          <mxGeometry x="380" y="380" width="100" height="30" as="geometry" />
        </mxCell>
        <mxCell id="kkfDQyU8IbMwYjaVZHdR-39" value="CMD: GLIVE / ILIVE" style="text;html=1;strokeColor=none;fillColor=none;align=center;verticalAlign=middle;whiteSpace=wrap;rounded=0;rotation=-54;fontSize=11;" parent="1" vertex="1">
          <mxGeometry x="283" y="360" width="137" height="30" as="geometry" />
        </mxCell>
        <mxCell id="kkfDQyU8IbMwYjaVZHdR-40" value="CMD: GLOG / ILOG" style="text;html=1;strokeColor=none;fillColor=none;align=center;verticalAlign=middle;whiteSpace=wrap;rounded=0;rotation=50;fontSize=11;" parent="1" vertex="1">
          <mxGeometry x="460" y="370" width="137" height="30" as="geometry" />
        </mxCell>
        <mxCell id="oajHU3bIGMmy59Xx9xr4-1" value="Pas de mouvement pdt. &amp;gt; periode" style="text;html=1;strokeColor=none;fillColor=none;align=center;verticalAlign=middle;whiteSpace=wrap;rounded=0;" parent="1" vertex="1">
          <mxGeometry x="183" y="304" width="187" height="30" as="geometry" />
        </mxCell>
        <mxCell id="FfS86C2nnLOS5idLJLWR-1" value="Accélération détectée" style="text;html=1;strokeColor=none;fillColor=none;align=center;verticalAlign=middle;whiteSpace=wrap;rounded=0;" vertex="1" parent="1">
          <mxGeometry x="447" y="73" width="123" height="30" as="geometry" />
        </mxCell>
      </root>
    </mxGraphModel>
  </diagram>
</mxfile>
